<?xml version="1.0" encoding="UTF-8" standalone="no" ?>
<svg xmlns="http://www.w3.org/2000/svg" width="48" height="48" viewBox="0 0 48 48">
	<g transform="translate(0,48) scale(0.1,-0.1)" fill="#6563ff" stroke="none">
		<path d="M 56.864407,424.15255 C 32.864407,401.15255 40,387 40,240 40,93 35.915255,82.40678 59.915255,59.40678 82.915255,35.40678 93,40 240,40 387,40 397.08474,33.372882 420.08474,57.372882 444.08474,80.372882 440,93 440,240 440,387 444.08474,401.66102 420.08474,424.66102 397.08474,448.66102 387,440 240,440 93,440 79.864407,448.15255 56.864407,424.15255 z M 400,240 400,100.85366 C 400,100.85366 406.35127,80 379.68461,80 353.01794,80 240,80 240,80 l -137.06633,0.179773 c -16.187123,0 -24.093146,3.15514 -22.93367,26.445007 L 80,240 c 0,0 0,102.01626 0,141.30362 C 80,401.73816 100.31539,400 100.31539,400 L 240,400 384.17998,400 C 384.17998,400 400,399.40005 400,377.52733 400,331.68489 400,240 400,240 z" />
		<path d="M315 351 c-28 -12 -54 -42 -100 -119 -28 -46 -48 -68 -65 -72 -33 -8 -33 -36 0 -32 33 3 65 37 114 119 29 46 49 69 66 73 14 3 25 12 25 20 0 17 -14 21 -40 11z" />
	</g>
</svg>
